<?xml version="1.0" encoding="UTF-8"?>
<svg id="_레이어_2" data-name="레이어 2" xmlns="http://www.w3.org/2000/svg" viewBox="0 0 262.4 190.06">
  <defs>
    <style>
      .cls-1 {
        fill: #613a18;
      }

      .cls-2 {
        fill: #bd7b38;
      }

      .cls-3 {
        fill: #895827;
      }
    </style>
  </defs>
  <g id="_레이어_1-2" data-name="레이어 1">
    <g>
      <path class="cls-3" d="M195.2,46.15c.71-8.04-7.52-14.04-13.7-17.8-2.49-1.52-9.63-4-10.8-5.2-1.44-1.49-2.83-7.62-4.68-10.32-3.89-5.69-8.51-7.17-15.24-6.59-1.75.15-4.08,1.69-5.11,1.59-1.14-.12-3.09-3.2-4.54-4.11-7.39-4.6-16.61-5.36-23.69.18-2.05,1.61-3.72,5.04-5.26,5.74-4.86,2.22-11.3-1.5-17.65,4.85-5.31,5.31-3.9,14.93-4.45,15.56-.17.19-3.29.7-4.84,1.66-5.69,3.53-12.2,8.36-17.07,12.93s-13.41,17.36-16.59,19.4c-3.92,2.51-10.35-.34-14.4-1.89-.65,1.76.92,3.89,1,5,15.92,7.34,18.21-3.19,26.49-12.01,35.31-37.65,89.7-39.65,130.51-8.99Z"/>
      <path class="cls-1" d="M9.2,97.15c1.53-1.26,3.45-.7,5-1,12.53-2.44,24.91-15.81,24-29-.08-1.11-1.65-3.24-1-5-1.85-.71-3.61-2.69-6.01-3.5C12.84,52.48-2.3,66.82.29,85.56c1.14,8.24,4.76,7.35,8.91,11.59Z"/>
      <g>
        <path class="cls-2" d="M64.69,55.14c35.31-37.65,89.7-39.65,130.51-8.99,8.91,6.69,20.15,23.41,24.86,33.64,5.57,12.12,8.19,25.23,10.14,38.36-.87-.74-20-1.24-22.49-.99-17.68,1.76-36.53,16.98-41.62,33.88-17.81-1.28-35.26,8.99-39.85,26.66-4.88-.22-31.96,2.25-33.9.32-.39-.38-.83-6.4-1.43-8.07-5.35-14.81-26.17-21.68-40.66-19.84l-4.99-25.26c-13.17-6.94-23.32-15.91-31.06-28.69,12.53-2.44,24.91-15.81,24-29,15.92,7.34,18.21-3.19,26.49-12.01ZM103.82,96.04c12.67,7.11,18.81-13.93,12.1-19.59-11.46-9.65-22.49,13.75-12.1,19.59ZM72.72,93.19c11.94.63,10.37-16.9,3.77-18.85-1.84-.54-5.64-.25-7.03,1.07-4.12,3.92-5.42,17.33,3.27,17.78ZM184.21,84.15c10.74.16,6.45-9.08,1.14-5.85-.62.38-1.54,5.39-1.14,5.85Z"/>
        <path class="cls-1" d="M115.92,76.45c-11.46-9.65-22.49,13.75-12.1,19.59,12.67,7.11,18.81-13.93,12.1-19.59Z"/>
        <path class="cls-1" d="M69.45,75.41c-4.12,3.92-5.42,17.33,3.27,17.78,11.94.63,10.37-16.9,3.77-18.85-1.84-.54-5.64-.25-7.03,1.07Z"/>
        <path class="cls-3" d="M185.35,78.3c-.62.38-1.54,5.39-1.14,5.85,10.74.16,6.45-9.08,1.14-5.85Z"/>
      </g>
      <g>
        <path class="cls-3" d="M14.2,96.15c7.74,12.78,17.88,21.76,31.06,28.69l4.99,25.26c14.49-1.84,35.31,5.03,40.66,19.84.6,1.67,1.05,7.68,1.43,8.07,1.95,1.93,29.03-.54,33.9-.32,4.59-17.67,22.04-27.94,39.85-26.66,5.09-16.9,23.94-32.12,41.62-33.88,2.49-.25,21.62.26,22.49.99.12.11-.32,1.43.17,1.8,1.82,1.39,6.17,2.46,8.53,4,12.56,8.22,22.11,20.73,23.31,36.19l-2,10c-.25.34-.67.72-1,1-6.54,2.6-12.78,1.74-19.54,2-1.92.07-4.01-1.03-3.46,2-9.54.43-4.77.32-9.96,4.54-11.38,9.26-28.21,10.81-39.4.54-5.11,5.3-11.69,6.62-18.64,7.92-1.03-1.71-3.73-1.06-5.37-.89-5.9.61-12.04.54-17.63,1.89-9.4-1.11-13.32-1.94-21-7-2.12-1.4-26.5-1.57-30.56-1.07-2.52.31-1.12,1.78-1.44,2.07-9.44,8.74-46.43,8.2-58.28,3.78-19.24-7.19-1.61-32.63,12.28-34.79-2.97-7.73-5.23-15.9-4.96-24.32-9.4-4.27-17.28-11.43-24.01-19.2-2.84-3.28-5.38-8.77-8.03-11.47,1.53-1.26,3.45-.7,5-1ZM210.85,146.95c5.22,1.01,3.94-6.6-.63-6.79-1.02,2.28-3.46,5.99.63,6.79ZM232.72,152.15c2.88.59,3.51-5.22.97-5.98-4.5-1.35-4.06,5.35-.97,5.98Z"/>
        <path class="cls-3" d="M145.2,189.15c8.4,1,14.6.57,23-1-1.03-1.71-3.73-1.06-5.37-.89-5.9.61-12.04.54-17.63,1.89Z"/>
        <path class="cls-3" d="M259.2,171.15c-6.54,2.6-12.78,1.74-19.54,2-1.92.07-4.01-1.03-3.46,2,1.61-.07,3.51.22,5,0,.11-.48.53-.93,1-1,6.57-.96,10.91,2.12,17-3Z"/>
        <path class="cls-3" d="M260.2,170.15c2.53-3.49,2.33-5.67,2-10l-2,10Z"/>
        <path class="cls-3" d="M241.2,175.15c.47-.07.89-.52,1-1-.47.07-.89.52-1,1Z"/>
        <path class="cls-1" d="M210.22,140.16c-1.02,2.28-3.46,5.99.63,6.79,5.22,1.01,3.94-6.6-.63-6.79Z"/>
        <path class="cls-1" d="M233.69,146.17c-4.5-1.35-4.06,5.35-.97,5.98,2.88.59,3.51-5.22.97-5.98Z"/>
      </g>
    </g>
  </g>
</svg>