<?xml version="1.0" encoding="UTF-8"?>
<svg id="_레이어_2" data-name="레이어 2" xmlns="http://www.w3.org/2000/svg" viewBox="0 0 198.1 211.97">
  <defs>
    <style>
      .cls-1 {
        fill: #613a18;
      }

      .cls-2 {
        fill: #895827;
      }
    </style>
  </defs>
  <g id="_레이어_1-2" data-name="레이어 1">
    <path class="cls-2" d="M65.18,122.64c-.19.25.15,1.97-.56,2.9-5.8,7.67-21.14,26.36-23.66,34.37-3.03,9.63,3,12.36,10.71,6.72s20.69-20,28.48-27.56c1.09-1.06,2.83-1.24,3.02-1.43,3.65.53,5.64,4.66,8,7-1.51,1.21.45,1.94,2,2,1.36,1.37,2.65,2.56,4,4l3,3c.31.35.7.64,1,1l1,1c4.48,5.8,3.56,6.54-1.02,12.48-19.04,24.67-53.98,47.33-86.36,43.41-11.35-1.37-13.77-7.92-14.6-18.4-2.28-28.79,16.13-62.19,35.47-82.5,2.99-3.14,7.51-9.09,12.06-6.04l17.45,18.06Z"/>
    <path class="cls-1" d="M83.18,137.64c-.19.19-1.94.38-3.02,1.43-7.79,7.56-20.49,21.72-28.48,27.56s-13.74,2.91-10.71-6.72c2.52-8.01,17.86-26.7,23.66-34.37.71-.94.37-2.65.56-2.9,3.62-4.77,12.37-11.48,17.03-16.47,13.21-14.15,26.51-28.22,39.51-42.56-2.37-9.8-4.59-15.82-2.05-25.98,2.36-9.43,16.16-30.41,24.01-35.99,3.95-2.81,5.24-1.73,8.99,1,14.45,10.49,28.49,28.75,43.02,39.98,2.08,2.18,3.02,3.98,1.97,6.96-.92,2.61-12.7,14.22-15.48,16.57-12.92,10.93-26.9,16.89-43.98,11.95-17.11,19.59-35.12,38.24-53.6,56.51-1.07,1.06-1.25,2.85-1.43,3.02ZM171.17,48.66c-.1-.14-1.91-.4-3.02-1.46-6.65-6.35-12.79-13.27-19.55-19.53-16.76,10.77-14.01,41.35,10.56,31.46,1.99-.8,13.43-8.5,12-10.48Z"/>
    <path class="cls-1" d="M93.18,146.64c-1.55-.06-3.51-.79-2-2,.67.66,1.33,1.33,2,2Z"/>
    <path class="cls-1" d="M100.18,153.64l-3-3c.93.99,1.88,1.73,3,3Z"/>
    <path class="cls-1" d="M102.18,155.64l-1-1c.3.35.72.63,1,1Z"/>
  </g>
</svg>