<svg width="105" height="101" viewBox="0 0 105 101" fill="none" xmlns="http://www.w3.org/2000/svg">
<path d="M40.5216 4.99256C42.8428 5.24285 45.6155 7.94333 47.2408 7.86868C48.866 7.79404 47.9719 5.98932 47.3487 5.21431C47.9279 4.78838 50.9714 5.89053 51.7532 5.21431C72.9214 7.92577 77.751 25.1408 78.1804 43.6358C77.6783 44.8894 78.0901 46.4746 77.9624 47.8051C78.3698 47.7612 78.1738 46.8039 78.1804 46.49C78.786 48.029 78.0174 49.8579 78.6429 51.4079C79.1252 52.6067 82.3647 54.991 83.4725 56.2534C85.4765 58.539 87.322 61.8674 87.6502 64.9323C87.7933 66.2759 87.6149 67.9248 87.6502 69.3233C86.7472 74.5311 83.6641 78.8694 79.2573 81.7192C79.0239 82.0178 79.2815 82.3822 79.2815 82.7159L78.7398 82.0551C77.0132 82.4152 74.7977 83.4976 73.1262 83.7171C68.301 84.3516 64.5021 84.6238 60.2011 81.7565C58.0253 80.3075 56.3493 77.7914 56.5894 75.1326C56.6599 74.3445 57.2853 71.8284 58.316 72.4453C58.4085 72.5002 58.4437 72.8208 58.5802 72.9437C59.3642 73.6529 59.5074 74.3401 60.124 74.9197C61.2296 75.9582 62.6897 75.2205 62.0422 73.6638C61.5335 72.4366 59.8245 70.9019 59.7166 69.8129C59.6241 68.8842 62.1127 67.0444 63.205 67.3495L62.7667 67.7843C63.9648 67.6613 66.8652 72.4146 67.9421 70.6428C69.0388 68.8403 66.0305 67.5142 65.8829 66.5394C65.8433 66.2737 66.5745 65.288 66.8784 65.1936C69.8228 64.2912 72.884 67.534 73.8618 70.0039C74.278 71.0556 74.5489 73.6682 74.9981 74.3598C75.5069 75.148 76.5155 75.1941 76.9251 74.3093C77.3612 73.3675 76.3063 71.7603 76.0751 70.8734C75.5069 68.6866 75.6963 67.1981 73.8948 65.3626C72.2607 63.6984 67.4466 61.9815 65.513 63.6106C65.1958 63.8784 64.6012 65.0377 64.4823 65.1057C64.2841 65.2155 62.1061 65.3033 61.4454 65.4834C60.3442 65.7819 58.7674 66.7129 58.1398 67.6767C57.6641 68.4034 57.6971 69.4002 57.3624 69.9754C56.77 70.9941 55.5918 70.8997 54.9024 73.0118C51.1564 84.5075 67.6536 88.5341 75.9605 84.7841C76.6146 84.4877 77.1343 83.7017 77.9624 83.8181C78.1518 84.0113 77.5484 85.5416 78.4028 85.3572V85.5701L77.958 85.7128C77.7488 89.3684 77 93.0195 75.9341 96.506C75.7359 96.6509 71.3137 97.2415 71.0759 97.18C70.8645 97.1251 69.5806 95.8759 69.1335 95.586C65.3324 93.1095 60.2143 92.0359 56.1665 94.5783C51.936 86.6745 38.8809 86.5164 33.3224 93.0129C28.6712 91.0348 24.1874 91.228 20.1881 94.4027C19.8247 94.6903 18.9614 96.0339 18.5034 95.6739C18.4505 95.6322 18.6487 95.2084 18.6025 94.9911C18.1378 92.8636 17.2569 90.7867 17.2018 88.5714C17.3031 88.2838 19.4613 87.6383 19.9745 87.3726C23.4056 85.6096 24.8943 82.2483 24.0046 78.483C23.9606 78.2942 23.5554 78.4062 23.5421 78.0088C23.5201 77.3589 23.998 76.9703 23.9584 76.2611C23.7337 72.2565 20.8179 70.2366 17.5167 68.6691C17.367 67.5625 16.9397 59.966 15.3189 60.3283C14.5569 60.4995 14.7066 63.9202 14.7529 64.6183C14.8344 65.8676 15.1757 67.22 15.4224 68.4495C14.623 68.4144 13.9204 68.7195 13.1078 68.6866C11.9626 68.6383 8.25841 67.2749 7.96551 69.2706C7.76069 70.6736 10.562 70.0017 11.4605 70.6494C10.6919 72.7242 9.77357 74.7923 9.3221 76.9681C8.96974 78.663 8.60857 81.3591 8.58875 83.0606C8.58214 83.57 9.10408 85.0542 9.03581 85.1354C8.68565 85.5438 8.58434 84.7863 8.49185 84.7468L7.49422 84.6985C4.25028 82.5557 1.72207 80.5204 0.60112 76.5312C-2.15832 66.7128 5.10256 60.7301 11.7952 55.0657C13.3963 53.711 14.4424 53.8998 14.5437 51.4299C14.6186 49.6208 12.9558 48.2596 12.5594 46.4966C12.8633 46.5536 13.3148 46.4834 13.6606 46.4966C15.3079 50.5846 19.5252 53.4432 23.3461 55.3928C34.7275 61.1999 54.4223 57.0328 46.7342 41.078C43.3361 34.0282 36.769 32.588 29.5169 32.4453C30.4881 29.8919 30.1556 25.8477 26.535 26.289C23.8637 26.614 24.3636 30.825 24.8921 32.6648C23.9716 32.7263 23.3417 32.9283 22.4696 33.1039C20.9963 31.1741 17.356 29.8853 14.9819 29.8107C16.0897 22.5325 19.9569 15.8186 25.7907 11.2761C27.1693 10.2025 31.4527 7.35493 33.0405 7.19686C34.8618 7.01682 38.2973 8.97083 39.2707 8.70518C39.9204 8.52734 40.2442 7.02561 40.0548 6.46575C39.8654 5.90589 38.326 5.78294 38.1035 5.00134C38.8809 5.07379 39.7574 4.91791 40.526 5.00134L40.5216 4.99256ZM22.5291 21.0835C22.0666 21.6236 22.3243 22.5413 22.7846 23.0068C23.5179 23.7488 29.627 26.311 30.7788 26.4515C31.8227 26.5789 32.8137 26.3286 33.1639 25.2001C33.7849 23.2044 30.8933 22.9826 29.6777 22.5018C28.2682 21.9463 25.0375 20.1702 23.7734 20.4512C23.5135 20.5083 22.6855 20.9013 22.5291 21.0835ZM42.7878 26.2232C44.5276 27.6305 48.9299 24.9432 50.6565 24.2077C51.7928 23.7247 54.5721 23.3295 54.9575 22.1307C55.5455 20.2953 54.0061 20.1899 52.5768 20.416C50.9141 20.6795 45.1134 22.4008 43.6026 23.1034C42.4398 23.6434 41.7153 25.3559 42.7878 26.2232ZM48.1723 26.1178C44.6597 26.8269 44.8777 34.6057 48.7779 34.4256C53.0173 34.2302 52.7596 25.1913 48.1723 26.1178Z" fill="#895827"/>
<path d="M51.7532 5.21216C50.9714 5.89057 47.9279 4.78842 47.3487 5.21216C47.972 5.98717 48.8683 7.79408 47.2408 7.86653C45.6133 7.93898 42.8429 5.2407 40.5217 4.99041L33.4766 2.02646C32.1861 -1.1241 36.7073 0.228338 38.3679 0.660854C40.8476 1.30634 42.7966 2.22626 44.9945 3.49526C45.5781 3.83118 46.5911 4.81257 47.0734 4.93552C48.1239 5.20337 50.357 5.02993 51.7554 5.20776L51.7532 5.21216Z" fill="#613A18"/>
<path d="M35.6767 4.77306C36.4827 4.83673 37.2931 4.91797 38.0992 4.99261C38.3194 5.77422 39.861 5.89936 40.0504 6.45702C40.2398 7.01468 39.9138 8.51861 39.2664 8.69645C38.293 8.9621 34.8574 7.0081 33.0362 7.18813C31.8888 6.42409 29.6425 7.07616 28.636 6.63486C27.9467 6.33188 27.6979 5.0475 28.1912 4.55351C28.5303 4.21321 31.9725 4.28566 32.7146 4.32518C33.6396 4.37567 34.7892 4.70281 35.6789 4.77306H35.6767Z" fill="#613A18"/>
<path d="M28.1887 4.55351C28.3495 4.00463 28.7855 4.17149 29.1775 4.11221C30.7169 3.8751 32.8377 4.02 34.4388 4.14295C34.7229 4.1649 35.8658 4.19784 35.6764 4.77526C34.7867 4.705 33.6371 4.37787 32.7122 4.32737C31.97 4.28786 28.5279 4.2154 28.1887 4.55571V4.55351Z" fill="#FAD895"/>
<path d="M87.6498 64.9301L87.87 64.816V69.8679C87.5419 70.2367 87.652 69.4551 87.6498 69.319C87.6146 67.9204 87.793 66.2716 87.6498 64.9279V64.9301Z" fill="#FAD895"/>
<path d="M17.8379 96.5456C17.915 96.7541 18.1528 96.8815 18.0581 97.202C16.9262 97.0813 15.8515 97.2745 14.7547 97.4238C14.6314 96.7607 15.0917 97 15.5145 96.9847C16.2633 96.9583 17.4635 97.2986 17.8379 96.5456Z" fill="#FAD895"/>
<path d="M78.1807 46.4878C78.1741 46.804 78.3701 47.759 77.9627 47.8029C78.0904 46.4724 77.6786 44.8851 78.1807 43.6336C78.2028 44.5777 78.2005 45.5437 78.1807 46.4878Z" fill="#613A18"/>
<path d="M7.48765 84.6898L8.48528 84.7381C8.57777 84.7776 8.67688 85.5351 9.02924 85.1267C9.09751 85.0455 8.57777 83.5613 8.58218 83.0519C8.602 81.3504 8.96317 78.6543 9.31553 76.9594C9.767 74.7836 10.6853 72.7155 11.4539 70.6407C10.5554 69.993 7.75413 70.6648 7.95894 69.2619C8.25184 67.2662 11.9561 68.6296 13.1012 68.6779C13.9139 68.713 14.6164 68.4057 15.4158 68.4408C15.1692 67.2113 14.8278 65.8589 14.7463 64.6096C14.7001 63.9114 14.5503 60.4886 15.3123 60.3196C16.931 59.9573 17.3604 67.5538 17.5102 68.6603C20.8114 70.2257 23.7294 72.2478 23.9518 76.2524C23.9914 76.9616 23.5158 77.3502 23.5356 78.0001C23.5488 78.3952 23.954 78.2855 23.9981 78.4743C24.89 82.2396 23.399 85.6009 19.9679 87.3639C19.4526 87.6274 17.2966 88.2751 17.1952 88.5627C17.2525 90.7779 18.1312 92.8549 18.5959 94.9823C18.6443 95.2019 18.4461 95.6256 18.4968 95.6652C18.9549 96.0252 19.8182 94.6816 20.1815 94.394C24.1808 91.2192 28.6625 91.026 33.3159 93.0042C38.8744 86.5077 51.9294 86.6657 56.16 94.5696C60.21 92.0272 65.3258 93.103 69.1269 95.5773C69.574 95.8671 70.8579 97.1164 71.0693 97.1713C71.3072 97.2328 75.7293 96.6422 75.9275 96.4973C76.9934 93.0108 77.7422 89.3596 77.9514 85.7041L78.3963 85.5614V85.3484C77.544 85.5307 78.1452 84.0026 77.9558 83.8094C77.1278 83.693 76.608 84.479 75.954 84.7754C67.647 88.5253 51.1498 84.4988 54.8959 73.0031C55.5852 70.891 56.7634 70.9854 57.3558 69.9667C57.6906 69.3914 57.6575 68.3947 58.1332 67.668C58.7631 66.7041 60.3377 65.7754 61.4388 65.4746C62.0995 65.2946 64.2797 65.209 64.4757 65.097C64.5947 65.0312 65.1893 63.8697 65.5064 63.6019C67.44 61.9728 72.2564 63.6919 73.8882 65.3539C75.6897 67.1893 75.5003 68.6779 76.0685 70.8646C76.2997 71.7516 77.3524 73.3609 76.9186 74.3006C76.5089 75.1854 75.5025 75.1393 74.9916 74.3511C74.5445 73.6595 74.2736 71.0469 73.8552 69.9952C72.8752 67.5231 69.8162 64.2825 66.8718 65.1848C66.5679 65.2792 65.8368 66.265 65.8764 66.5307C66.0217 67.5033 69.03 68.8316 67.9355 70.6341C66.8586 72.4059 63.9582 67.6526 62.7602 67.7755L63.1984 67.3408C62.1061 67.0357 59.6175 68.8755 59.71 69.8042C59.818 70.891 61.5269 72.4278 62.0356 73.6551C62.6809 75.2117 61.2208 75.9494 60.1175 74.911C59.503 74.3335 59.3577 73.6442 58.5737 72.935C58.4393 72.8121 58.4019 72.4915 58.3094 72.4366C57.2787 71.8197 56.6533 74.3357 56.5828 75.1239C56.3428 77.7827 58.0187 80.2988 60.1945 81.7478C64.4956 84.6151 68.2945 84.3429 73.1196 83.7084C74.7912 83.4888 77.0067 82.4064 78.7332 82.0464L79.275 82.7072C79.2486 87.4561 78.676 92.2687 77.0727 96.7563C77.315 96.921 79.3278 96.8639 79.7154 96.9781C80.7857 97.2942 83.8755 99.2263 84.7036 100.129C85.1198 100.583 85.9479 102.271 86.0998 102.359C86.5689 102.636 90.4361 102.783 91.6099 103.123C92.6163 103.415 94.7856 104.509 95.6467 105.137C95.9748 105.376 96.2325 105.51 96.2347 105.977C94.3121 108.63 91.3038 111.989 88.9672 114.32C86.9565 114.56 84.9392 114.762 82.9264 114.994C81.8098 115.124 81.0963 115.37 79.7176 115.418C79.4886 115.054 78.8808 115.199 78.5086 115.194C76.4693 115.172 74.3661 115.203 72.3422 114.977C68.8494 114.586 66.5789 113.37 62.9804 114.101C60.2276 114.661 57.6465 115.142 54.832 115.418L46.6836 114.979C45.8291 114.795 42.9354 113.855 42.4046 113.888C41.7616 113.927 41.0062 114.676 40.3587 114.931C39.4492 115.289 37.9428 115.794 37.0047 115.978C35.7251 116.228 34.2628 116.123 33.0296 116.516H30.3868V116.738H33.688V116.516H31.488L26.6474 115.524C25.7951 115.403 24.4385 114.066 23.8329 113.921C23.2273 113.776 22.5732 114.208 22.0182 114.32C21.5007 113.873 20.067 114.54 19.4856 114.54H13.9799C13.9051 114.54 13.6122 114.334 13.3281 114.312C12.6344 114.259 11.9208 114.36 11.2271 114.32C10.1083 114.112 8.90811 113.585 7.70347 113.662C5.33603 111.273 3.27251 108.696 1.31689 105.977C2.1009 105.815 3.00163 105.134 3.69314 104.939C4.11598 104.82 4.54982 104.952 4.84052 104.88C5.31401 104.763 6.96131 104.517 7.04059 104.438C7.13088 104.351 6.98113 102.625 7.04059 102.245C8.37517 99.2131 11.6632 97.8343 14.7485 97.415C15.8453 97.2657 16.9178 97.0747 18.0519 97.1932C18.1488 96.8705 17.9088 96.7432 17.8317 96.5368C16.8605 93.8934 16.1007 91.2127 15.7528 88.4002C14.4799 88.1258 13.4228 88.0665 12.1763 87.5747C10.9298 87.0829 8.6967 85.4846 7.48104 84.681L7.48765 84.6898ZM40.9335 96.3567C39.861 95.9923 37.531 97.1757 37.7028 98.359C37.8745 99.5424 38.5947 99.5907 39.6518 99.2965C41.0987 98.8948 41.5832 97.7004 40.9357 96.3567H40.9335ZM22.364 102.375C20.2212 104.261 20.3357 106.772 23.6193 106.366C25.7665 106.1 30.748 103.725 27.1649 101.628C25.533 100.673 23.6677 101.226 22.364 102.375ZM66.4424 102.978C65.6562 102.256 63.3041 101.119 62.573 102.388C61.1151 104.915 66.5481 106.397 67.0832 104.454C67.1867 104.076 66.7089 103.222 66.4424 102.978ZM56.5454 104.061C56.2635 103.775 54.9487 103.648 54.5964 104.098C53.3279 105.716 56.6995 107.536 56.7788 104.998C56.7854 104.814 56.6467 104.162 56.5454 104.061ZM81.6711 107.554C80.1515 106.599 78.4844 110.129 80.9245 109.716C81.8318 109.563 82.1489 107.852 81.6711 107.554Z" fill="#613A18"/>
<path d="M22.3637 102.375C23.6675 101.226 25.535 100.673 27.1647 101.628C30.7456 103.725 25.764 106.1 23.619 106.366C20.3354 106.772 20.2209 104.261 22.3637 102.375Z" fill="#895827"/>
<path d="M40.9333 96.3568C41.5808 97.7004 41.0985 98.8948 39.6494 99.2965C38.5923 99.5907 37.8744 99.5534 37.7004 98.3591C37.5264 97.1647 39.8586 95.9923 40.9311 96.3568H40.9333Z" fill="#895827"/>
<path d="M42.7878 26.2232C41.7153 25.356 42.4399 23.6435 43.6027 23.1034C45.1134 22.4008 50.9142 20.6774 52.5769 20.4161C54.0084 20.19 55.5456 20.2953 54.9576 22.1308C54.5722 23.3295 51.7929 23.7247 50.6565 24.2077C48.93 24.9432 44.5276 27.6305 42.7878 26.2232Z" fill="#613A18"/>
<path d="M48.1726 26.1178C52.7599 25.1913 53.0176 34.2303 48.7782 34.4257C44.878 34.6057 44.66 26.827 48.1726 26.1178Z" fill="#613A18"/>
<path d="M22.529 21.0835C22.6853 20.9013 23.5112 20.5083 23.7732 20.4512C25.0373 20.1702 28.2681 21.9463 29.6775 22.5018C30.8932 22.9826 33.7848 23.2044 33.1637 25.2001C32.8136 26.3286 31.8225 26.5811 30.7787 26.4515C29.6269 26.311 23.5178 23.7467 22.7844 23.0068C22.3242 22.5413 22.0687 21.6236 22.529 21.0835Z" fill="#613A18"/>
<path d="M29.51 32.4365C28.2987 32.4124 26.1801 32.5683 24.8852 32.6561C24.3567 30.8163 23.8567 26.6053 26.5281 26.2803C30.1486 25.839 30.4812 29.8832 29.51 32.4365Z" fill="#613A18"/>
<path d="M86.7692 86.6657C87.1832 86.6833 87.4959 86.5494 87.8659 86.5538C87.2669 87.0565 87.7536 87.8337 87.6611 88.2794C87.6237 88.4551 87.1986 88.4024 87.2008 88.5341C87.2074 88.8459 87.5774 89.0544 87.6479 89.4211C87.8637 90.5452 86.8507 93.5552 86.549 94.7825C87.2933 94.9735 87.8043 95.5071 88.5971 95.0197C89.3899 94.5323 90.2135 89.1005 90.7245 87.904C90.8324 87.6954 91.209 87.7086 91.394 87.7635C91.4292 87.7744 91.6406 88.0555 91.9908 88.1477C92.8364 88.3672 95.7412 88.8788 96.2301 89.1993C97.5471 90.0666 96.4283 92.8768 96.0782 94.08C95.1246 97.3359 93.7878 100.5 91.6142 103.132C90.4404 102.792 86.5754 102.645 86.1041 102.368C85.9521 102.278 85.1241 100.59 84.7079 100.137C83.8798 99.235 80.79 97.303 79.7197 96.9868L82.1268 86.3254C82.8469 85.5175 85.569 86.6196 86.767 86.6679L86.7692 86.6657Z" fill="#895827"/>
<path d="M86.7698 86.6657C88.2431 79.0253 90.3264 71.5035 92.0486 63.9136C92.0772 63.1737 90.4432 62.3219 89.8904 61.492C88.2651 59.055 88.6725 53.867 90.0291 51.3838C90.3529 50.7932 90.7823 50.5342 91.4672 50.5144C95.2705 51.5858 99.8512 51.9349 103.558 53.138C105.815 53.8692 104.888 55.4807 104.328 57.2964C103.216 60.9058 101.223 64.5415 96.9222 64.513L91.3967 87.7657C91.2118 87.7108 90.8352 87.6976 90.7273 87.9062C90.2163 89.1028 89.3949 94.5345 88.5999 95.0219C87.8048 95.5093 87.2961 94.9758 86.5518 94.7847C86.8535 93.5575 87.8665 90.5474 87.6507 89.4233C87.5802 89.0566 87.2102 88.8481 87.2036 88.5363C87.2014 88.4046 87.6265 88.4573 87.6639 88.2816C87.7564 87.8381 87.2697 87.0609 87.8687 86.556C87.4987 86.5538 87.186 86.6855 86.772 86.6679L86.7698 86.6657ZM99.9768 56.8155L92.9427 55.2699C90.9563 60.9453 99.6024 62.829 99.9768 56.8155Z" fill="#613A18"/>
<path d="M99.9764 56.8155C99.602 62.8291 90.9559 60.9431 92.9423 55.2699L99.9764 56.8155Z" fill="#F6C04F"/>
<path d="M14.9754 29.8019C17.3495 29.8766 20.9898 31.1653 22.4631 33.0952C27.0196 39.067 21.6681 47.0565 14.535 46.7074C14.4711 46.4922 14.2817 46.5054 14.0945 46.4878C13.9514 46.4747 13.7994 46.4944 13.6541 46.4878C13.3083 46.4747 12.8568 46.5449 12.5529 46.4878C3.15805 44.7314 3.55226 29.4441 14.9754 29.8019ZM13.8214 32.9218C11.7931 33.2138 9.83092 35.3719 12.2556 36.7946C13.5814 37.5719 15.0613 37.326 16.2814 36.4851C19.0716 34.5596 16.1668 32.5858 13.8192 32.924L13.8214 32.9218Z" fill="#613A18"/>
<path d="M13.8216 32.9218C16.167 32.5837 19.0718 34.5574 16.2838 36.4829C15.0637 37.326 13.5838 37.5697 12.258 36.7925C9.83112 35.3698 11.7955 33.2116 13.8238 32.9196L13.8216 32.9218Z" fill="#895827"/>
<path d="M14.5343 46.7071C14.3474 46.6983 14.1561 46.6961 14.0945 46.4879C14.2814 46.5054 14.4705 46.4922 14.5343 46.7071Z" fill="#895827"/>
<path d="M29.5101 32.4365C36.7622 32.5792 43.3294 34.0195 46.7275 41.0693C54.4178 57.0241 34.7207 61.189 23.3394 55.384C19.5184 53.4344 15.3011 50.5759 13.6538 46.4878C13.7992 46.4944 13.9511 46.4746 14.0943 46.4878C14.1559 46.6964 14.3475 46.6986 14.5347 46.7074C21.6679 47.0565 27.0194 39.067 22.4629 33.0952C23.335 32.9195 23.9648 32.7176 24.8854 32.6561C26.1803 32.5683 28.2989 32.4124 29.5101 32.4365ZM30.9218 50.5298C34.5952 47.9083 37.2731 47.8315 41.3341 49.9589C42.3626 50.499 43.7148 52.1764 44.6133 51.116C46.3597 49.0566 40.3805 46.7557 38.9403 46.4176C35.5862 45.6294 32.5823 46.3649 29.9484 48.5714C29.1754 49.219 26.7727 51.3267 28.8451 51.8888C29.6269 52.1018 30.3668 50.9272 30.9218 50.5298Z" fill="#BD7B38"/>
<path d="M30.9219 50.5298C30.3669 50.9272 29.6269 52.0996 28.8451 51.8888C26.7728 51.3268 29.1777 49.2191 29.9484 48.5714C32.5824 46.3649 35.5885 45.6294 38.9403 46.4176C40.3806 46.7557 46.3597 49.0588 44.6134 51.116C43.7126 52.1764 42.3626 50.4991 41.3342 49.959C37.2732 47.8315 34.5952 47.9062 30.9219 50.5298Z" fill="#613A18"/>
</svg>
