<svg width="24" height="15" viewBox="0 0 24 15" fill="none" xmlns="http://www.w3.org/2000/svg">
<path d="M17.6705 0.190452C17.9245 0.0380907 18.1149 -0.022854 18.2419 0.00761791C18.4006 0.00761791 18.6863 0.114271 19.099 0.327576C19.6387 0.632299 19.9561 0.845605 20.0514 0.967494C20.1783 1.08938 20.2418 1.33316 20.2418 1.69883C20.2418 2.27781 20.0672 2.82631 19.718 3.34434C19.3689 3.86237 19.0197 4.12138 18.6705 4.12138C18.2578 4.12138 18.0038 4.33469 17.9086 4.7613C17.8134 5.18791 17.9403 5.49264 18.2895 5.67547C18.5435 5.76689 18.8609 5.78212 19.2419 5.72118C19.6545 5.62976 20.1149 5.66023 20.6228 5.8126C21.1624 5.96496 21.5116 6.04114 21.6703 6.04114C21.9878 6.04114 22.4163 6.39157 22.956 7.09243C23.5274 7.76282 23.8131 8.29609 23.8131 8.69223C23.8131 8.96648 23.8607 9.2255 23.9559 9.46927C24.1146 9.92636 23.8448 10.7796 23.1464 12.0289C22.575 13.0041 22.1465 13.6287 21.8608 13.903C21.5751 14.1468 21.0989 14.3296 20.4323 14.4515C19.6704 14.5734 19.0673 14.7105 18.6228 14.8629C18.0832 15.0457 17.5277 15.0457 16.9563 14.8629C16.4166 14.68 16.0039 14.3601 15.7182 13.903C15.5278 13.6287 15.2579 13.4307 14.9087 13.3088C13.6707 12.9126 13.0358 11.5566 13.0041 9.24073C12.9723 8.7227 12.9089 8.37227 12.8136 8.18944C12.6867 8.0066 12.6549 7.80853 12.7184 7.59523C12.8454 6.86389 13.1152 6.08685 13.5279 5.26409C13.8453 4.62417 14.0041 4.25851 14.0041 4.16709C14.0041 4.10614 14.0834 4.01473 14.2421 3.89284C14.4008 3.74048 14.5754 3.48146 14.7659 3.1158C14.9246 2.81107 15.3532 2.30828 16.0516 1.60741C16.7817 0.876078 17.3213 0.403758 17.6705 0.190452ZM5.09973 1.01321C5.44892 0.83037 5.67113 0.738952 5.76636 0.738952C5.8616 0.738952 6.0997 0.815133 6.48063 0.967494C6.98854 1.1808 7.27422 1.36364 7.33771 1.516C7.43294 1.63789 7.43294 1.91214 7.33771 2.33875C7.21073 2.85678 7.14726 3.17674 7.14726 3.29863C7.08377 3.48146 6.92504 3.63382 6.67108 3.75571C6.16317 3.99949 5.73462 4.39563 5.38544 4.94413C5.06799 5.37075 5.2902 5.62976 6.05206 5.72118C6.30602 5.75165 6.57586 5.75165 6.86156 5.72118C7.55993 5.69071 8.33766 5.90401 9.19476 6.3611C10.0836 6.78771 10.6709 7.27527 10.9566 7.82377C11.1153 8.06755 11.1788 8.66176 11.147 9.6064C11.147 10.5206 11.0677 11.0995 10.909 11.3433C10.7502 11.5566 10.6391 11.8156 10.5757 12.1204C10.4804 12.4251 10.3376 12.6232 10.1471 12.7146C9.95663 12.8365 9.71855 13.0345 9.43285 13.3088C9.14715 13.6135 8.92494 13.7659 8.76622 13.7659C8.6075 13.7659 8.32179 13.903 7.90911 14.1772C7.21074 14.6648 6.55998 14.7562 5.95684 14.4515C5.73463 14.3296 5.40132 14.2687 4.95689 14.2687C4.51247 14.2382 3.98869 14.0554 3.38555 13.7202C2.87764 13.4459 2.40146 13.1869 1.95704 12.9431C1.38564 12.6384 1.05233 12.2423 0.957093 11.7547C0.925349 11.4804 0.782485 11.1757 0.528529 10.8405C0.211085 10.353 0.0365062 9.59116 0.0047618 8.5551C-0.0269826 7.48857 0.0999901 6.78771 0.38569 6.45251C0.449179 6.3611 0.496785 6.11732 0.528529 5.72118C0.592018 5.32504 0.750751 4.91366 1.00471 4.48705C1.25866 4.02996 1.4015 3.6643 1.43325 3.39005C1.52848 2.87202 1.89355 2.53682 2.52844 2.38446C2.81414 2.29304 3.11572 2.09497 3.43316 1.79025C3.78235 1.45505 4.05216 1.28746 4.24263 1.28746C4.43309 1.28746 4.7188 1.19604 5.09973 1.01321Z" fill="#663E19"/>
</svg>
