<svg width="24" height="15" viewBox="0 0 24 15" fill="none" xmlns="http://www.w3.org/2000/svg">
<path d="M18.1547 0.174144C18.5225 -0.109646 19.1355 -0.0465816 19.9937 0.363337C20.8825 0.773256 21.4189 1.23047 21.6028 1.73499C21.6947 2.01878 21.8786 2.34987 22.1545 2.72825C22.7368 3.42196 23.2732 4.44675 23.7636 5.80264C23.9475 6.30715 24.0241 7.25312 23.9934 8.64053C23.9628 9.99642 23.8555 10.8951 23.6716 11.3365C23.4877 11.7149 23.3958 11.9356 23.3958 11.9987C23.3958 12.2194 23.074 12.724 22.4303 13.5123C21.8173 14.3006 21.3576 14.7735 21.0511 14.9312C20.7446 15.0573 20.2849 15.01 19.6719 14.7893C19.0895 14.5686 18.7524 14.3006 18.6604 13.9852C18.2926 13.0077 18.3693 12.1091 18.8903 11.2892C19.1048 10.9424 19.2275 10.6428 19.2581 10.3906C19.2888 10.1383 19.2274 9.98065 19.0742 9.91759C18.9516 9.82299 18.7524 9.82299 18.4765 9.91759C17.9555 10.1068 17.4498 10.1225 16.9594 9.96489C16.7755 9.87029 16.5303 9.80722 16.2238 9.77569C16.0093 9.77569 15.7487 9.72839 15.4422 9.6338C15.1664 9.50767 15.0285 9.41307 15.0285 9.35001C15.0285 9.25541 14.7986 8.97162 14.3388 8.49864C13.8791 7.96259 13.5879 7.50538 13.4653 7.12699C13.3734 6.71707 13.3427 6.0549 13.3734 5.14046C13.404 4.28909 13.45 3.75305 13.5113 3.53232C13.6033 3.28006 13.8944 2.80708 14.3848 2.11337C14.5687 1.82958 14.7373 1.57733 14.8905 1.3566C14.9518 1.19894 15.197 1.04128 15.6261 0.88362C15.9939 0.757491 16.3004 0.59983 16.5456 0.410638C16.7908 0.189911 17.0666 0.126847 17.3731 0.221444C17.7103 0.316039 17.9708 0.300273 18.1547 0.174144ZM4.13256 1.21471C4.43906 1.08858 4.8375 1.08858 5.32789 1.21471C5.81828 1.3093 6.26271 1.51426 6.66116 1.82958C7.02895 2.11337 7.51935 2.41293 8.13234 2.72825C8.62273 2.98051 8.95986 3.217 9.14376 3.43772C9.35831 3.65845 9.78739 4.25756 10.431 5.23506C10.8295 5.83417 11.0594 6.32292 11.1207 6.70131C11.1513 6.9851 11.2126 7.34772 11.3045 7.78917C11.3965 8.13602 11.3965 8.41981 11.3045 8.64053C11.2126 8.89279 11.1513 9.52343 11.1207 10.5325C11.09 11.3523 10.9674 12.046 10.7529 12.6136C10.5383 13.1496 10.2778 13.4807 9.9713 13.6069C9.81806 13.6384 9.57285 13.8118 9.2357 14.1271C8.92921 14.474 8.57675 14.6474 8.17831 14.6474C7.81051 14.6474 7.38143 14.4898 6.89103 14.1744C6.40064 13.8276 6.15543 13.528 6.15543 13.2758C6.15543 13.0235 6.21674 12.7082 6.33934 12.3298C6.49259 11.9199 6.64582 11.6046 6.79907 11.3838C7.04427 11.0685 7.1209 10.7847 7.02895 10.5325C6.96765 10.2487 6.73778 10.0437 6.33934 9.91759C5.97155 9.79146 5.54246 9.79146 5.05207 9.91759C3.82609 10.1383 2.87594 10.1068 2.20165 9.82299C1.52736 9.50767 0.960341 8.86126 0.500598 7.88376C0.0715055 6.96933 -0.0817305 6.0076 0.0408674 4.99857C0.163465 3.98954 0.531267 3.18547 1.14426 2.58635C1.5427 2.17644 1.83387 1.86112 2.01777 1.64039C2.14037 1.4512 2.24764 1.34084 2.33959 1.3093C2.46219 1.27777 2.70737 1.262 3.07517 1.262C3.59621 1.29354 3.94867 1.27777 4.13256 1.21471Z" fill="#663E19"/>
</svg>
