<?xml version="1.0" encoding="UTF-8"?>
<svg id="_레이어_2" data-name="레이어 2" xmlns="http://www.w3.org/2000/svg" viewBox="0 0 636.45 784.89">
  <defs>
    <style>
      .cls-1 {
        fill: #613a18;
      }

      .cls-2 {
        fill: #bd7b38;
      }

      .cls-3 {
        fill: #895827;
      }

      .cls-4 {
        fill: #f6c04f;
      }

      .cls-5 {
        fill: #e1a229;
      }

      .cls-6 {
        fill: #fad895;
      }
    </style>
  </defs>
  <g id="_레이어_1-2" data-name="레이어 1">
    <g>
      <path class="cls-5" d="M110.61,94.08C213.62-15.82,372.32-33.52,491.66,62.69c180.42,145.45,191.6,457.08,37.04,624.99-129.79,140.99-327.67,125.19-441.93-25.1C-35.87,501.25-29.03,243.04,110.61,94.08ZM103.19,640.66c8.88,12.38,18.25,24.12,29,35,107.29,108.58,260.51,111.66,369,3,10.61-10.62,24.27-25.92,33-38,110.3-152.72,102.39-395.89-30.95-532.52C354.1-44.67,145.11,28.88,64.19,209.16,1.84,348.09,14.16,516.52,103.19,640.66Z"/>
      <path class="cls-4" d="M103.19,640.66C14.16,516.52,1.84,348.09,64.19,209.16,145.11,28.88,354.1-44.67,503.24,108.14c133.34,136.63,141.25,379.8,30.95,532.52,0-2.14-1.18-2.75-2.67-3.83-3.91-2.85-13.77-7.84-18.33-9.17,9.86-11.99,15.94-26.4,20.27-41.23,1.6-5.47,6.67-18.28.69-22.23-2.22-1.46-15.41-3.79-19.25-4.79-1.59-.42-2.55-1.7-2.71-1.75l25.09-105.91c19.53.12,28.58-16.43,33.63-32.87,2.54-8.27,6.75-15.6-3.5-18.94-16.83-5.47-37.63-7.06-54.9-11.95-3.11.08-5.06,1.26-6.53,3.96-6.16,11.31-8.01,34.94-.63,46.04,2.52,3.79,9.94,7.66,9.8,11.03-7.82,34.57-17.28,68.83-23.97,103.63-5.44-.22-17.8-5.24-21.07-1.56l-10.93,48.56c-1.76-.52-10.9-.26-12-1.01,7.28-20.44,9.88-42.36,10-63.99,0-1.52-1.17-3.18-.11-4.54,20-12.99,34.01-32.74,38.11-56.46.02.62-.49,4.18,1,2.5v-23.01s-1,.52-1,.52c-1.49-13.96-9.87-29.12-18.97-39.53-5.03-5.76-19.73-16.61-21.93-22.07-2.84-7.06.65-15.39-2.1-22.4.09-4.3.1-8.7,0-13-1.95-84.24-23.88-162.65-120-175-6.34-.81-16.49-.02-21.26-1.24-2.19-.56-6.79-5.03-9.44-6.56-9.98-5.78-18.83-9.97-30.09-12.91-7.54-1.97-28.07-8.13-22.21,6.22l31.99,13.5c-3.49-.38-7.47.33-11,0s-7.34-.71-11-1c.86-2.63-4.33-2.78-5.62-2.88-7.27-.55-16.89-1.21-23.89-.14-1.78.27-3.77-.49-4.49,2.01-2.24,2.25-1.11,8.1,2.02,9.48,4.56,2.01,14.76-.96,19.98,2.52-7.21.72-26.66,13.69-32.92,18.58-26.49,20.69-44.05,51.27-49.08,84.42-51.87-1.63-53.66,68-11,76,1.8,8.03,9.34,14.23,9.01,22.47-.46,11.26-5.21,10.39-12.48,16.56-30.39,25.8-63.36,53.06-50.83,97.77,5.09,18.17,16.57,27.44,31.3,37.2,5.52,3.66,15.81,11,21.32,13.18s10.46,2.51,16.24,3.76c1.58,12.81,5.03,25.02,9.44,37.06-1.69,3.43-7.15,1.88-10.55,2-1.92.07-4.01-1.02-3.45,2-14.01,1.91-28.94,8.19-35,22-1.88,4.29-.65,8.68-.99,9-.21.2-4.45.63-5.7.87-1.85.36-3.9-.87-3.31,2.14-1.32.32-3.29-.28-5.21.27-3.14.89-7.23,4-10.79,4.73Z"/>
      <path class="cls-4" d="M148.19,678.66c1.84.34,7.01,2,8.5,2h32c1.45,0,6.56-1.61,8.5-2,2.52-.51,5.41-2.5,8.24-1.82s8.91,6.75,12.78,7.3l21.98,4.52h7c5.6-1.78,12.24-1.31,18.05-2.45,4.26-.84,11.1-3.14,15.23-4.77,2.94-1.16,6.37-4.57,9.29-4.75,2.41-.15,15.55,4.13,19.43,4.97,14.32,3.09,22.55,3.43,37,2,12.78-1.26,24.5-3.45,37-6,2.59,2.08,4.95-1.12,8.44-1.04,4.63.1,13.07,2.98,18.35,3.75,16.63,2.44,32.33,3.9,49.21,3.29,6.26-.23,9.5-1.35,14.57-1.93,9.14-1.06,18.31-1.97,27.43-3.07-108.49,108.66-261.71,105.58-369-3,5.47-.35,10.92,2.05,16,3Z"/>
      <path class="cls-6" d="M346.19,683.66c-14.45,1.43-22.68,1.09-37-2l37,2Z"/>
      <rect class="cls-6" x="235.2" y="688.66" width="14.99" height="1.01"/>
      <g>
        <path class="cls-3" d="M281.19,180.66c10.54,1.14,23.13,13.44,30.51,13.1s3.32-8.56.49-12.09c2.63-1.94,16.45,3.08,20,0,96.12,12.35,118.05,90.76,120,175-2.28,5.71-.41,12.93-.99,18.99,1.85-.2.96-4.56.99-5.99,2.75,7.01-.74,15.34,2.1,22.4,2.19,5.46,16.9,16.32,21.93,22.07,9.1,10.41,17.48,25.57,18.97,39.53.65,6.12-.16,13.63,0,20-4.1,23.72-18.1,43.48-38.11,56.46-1.06,1.36.11,3.02.11,4.54l-2.46-3.01c-7.84,1.64-17.9,6.57-25.49,7.57-21.91,2.89-39.16,4.13-58.69-8.93-9.88-6.6-17.49-18.06-16.4-30.17.32-3.59,3.16-15.05,7.84-12.24.42.25.58,1.71,1.2,2.27,3.56,3.23,4.21,6.36,7.01,9,5.02,4.73,11.65,1.37,8.71-5.72-2.31-5.59-10.07-12.58-10.56-17.54-.42-4.23,10.88-12.61,15.84-11.22l-1.99,1.98c5.44-.56,18.61,21.09,23.5,13.02,4.98-8.21-8.68-14.25-9.35-18.69-.18-1.21,3.14-5.7,4.52-6.13,13.37-4.11,27.27,10.66,31.71,21.91,1.89,4.79,3.12,16.69,5.16,19.84,2.31,3.59,6.89,3.8,8.75-.23,1.98-4.29-2.81-11.61-3.86-15.65-2.58-9.96-1.72-16.74-9.9-25.1-7.42-7.58-29.28-15.4-38.06-7.98-1.44,1.22-4.14,6.5-4.68,6.81-.9.5-10.79.9-13.79,1.72-5,1.36-12.16,5.6-15.01,9.99-2.16,3.31-2.01,7.85-3.53,10.47-2.69,4.64-8.04,4.21-11.17,13.83-17.01,52.36,57.9,70.7,95.62,53.62,2.97-1.35,5.33-4.93,9.09-4.4.86.88-1.88,7.85,2,7.01v.97s-2.02.65-2.02.65c-.95,16.65-4.35,33.28-9.19,49.16-.9.66-20.98,3.35-22.06,3.07-.96-.25-6.79-5.94-8.82-7.26-17.26-11.28-40.5-16.17-58.88-4.59-19.21-36-78.49-36.72-103.73-7.13-21.12-9.01-41.48-8.13-59.64,6.33-1.65,1.31-5.57,7.43-7.65,5.79-.24-.19.66-2.12.45-3.11-2.11-9.69-6.11-19.15-6.36-29.24.46-1.31,10.26-4.25,12.59-5.46,15.58-8.03,22.34-23.34,18.3-40.49-.2-.86-2.04-.35-2.1-2.16-.1-2.96,2.07-4.73,1.89-7.96-1.02-18.24-14.26-27.44-29.25-34.58-.68-5.04-2.62-39.64-9.98-37.99-3.46.78-2.78,16.36-2.57,19.54.37,5.69,1.92,11.85,3.04,17.45-3.63-.16-6.82,1.23-10.51,1.08-5.2-.22-22.02-6.43-23.35,2.66-.93,6.39,11.79,3.33,15.87,6.28-3.49,9.45-7.66,18.87-9.71,28.78-1.6,7.72-3.24,20-3.33,27.75-.03,2.32,2.34,9.08,2.03,9.45-1.59,1.86-2.05-1.59-2.47-1.77l-4.53-.22c-14.73-9.76-26.21-19.03-31.3-37.2-12.53-44.72,20.44-71.97,50.83-97.77,7.27-6.17,12.02-5.31,12.48-16.56.34-8.24-7.21-14.44-9.01-22.47,1.38.26,3.43-.06,5,0,7.48,18.62,26.63,31.64,43.98,40.52,51.68,26.45,141.11,7.47,106.2-65.2-15.43-32.11-45.25-38.67-78.18-39.32,4.41-11.63,2.9-30.05-13.54-28.04-12.13,1.48-9.86,20.66-7.46,29.04-4.18.28-7.04,1.2-11,2-6.69-8.79-23.22-14.66-34-15,5.03-33.15,22.59-63.73,49.08-84.42,6.26-4.89,25.71-17.86,32.92-18.58,8.27-.82,23.87,8.08,28.29,6.87,2.95-.81,4.42-7.65,3.56-10.2s-7.85-3.11-8.86-6.67c3.53.33,7.51-.38,11,0ZM199.49,253.95c-2.1,2.46-.93,6.64,1.16,8.76,3.33,3.38,31.07,15.05,36.3,15.69,4.74.58,9.24-.56,10.83-5.7,2.82-9.09-10.31-10.1-15.83-12.29-6.4-2.53-21.07-10.62-26.81-9.34-1.18.26-4.94,2.05-5.65,2.88ZM291.48,277.36c7.9,6.41,27.89-5.83,35.73-9.18,5.16-2.2,17.78-4,19.53-9.46,2.67-8.36-4.32-8.84-10.81-7.81-7.55,1.2-33.89,9.04-40.75,12.24-5.28,2.46-8.57,10.26-3.7,14.21ZM315.93,276.88c-15.95,3.23-14.96,38.66,2.75,37.84,19.25-.89,18.08-42.06-2.75-37.84Z"/>
        <path class="cls-1" d="M332.19,181.66c-3.55,3.09-17.37-1.93-20,0,2.83,3.53,6.9,11.76-.49,12.09s-19.97-11.96-30.51-13.1l-31.99-13.5c-5.86-14.35,14.67-8.19,22.21-6.22,11.26,2.94,20.11,7.13,30.09,12.91,2.65,1.53,7.25,6,9.44,6.56,4.77,1.22,14.91.43,21.26,1.24Z"/>
        <path class="cls-1" d="M259.19,179.66c3.66.29,7.34.66,11,1,1,3.56,8,4.13,8.86,6.67s-.62,9.39-3.56,10.2c-4.42,1.21-20.02-7.69-28.29-6.87-5.21-3.48-15.41-.51-19.98-2.52-3.13-1.38-4.26-7.23-2.02-9.48,1.54-1.55,17.17-1.22,20.54-1.04,4.2.23,9.42,1.72,13.46,2.04Z"/>
        <path class="cls-6" d="M225.19,178.66c.73-2.5,2.71-1.74,4.49-2.01,6.99-1.08,16.62-.42,23.89.14,1.29.1,6.48.25,5.62,2.88-4.04-.32-9.26-1.81-13.46-2.04-3.37-.18-19-.51-20.54,1.04Z"/>
        <path class="cls-6" d="M495.19,453.66l1-.52v23.01c-1.49,1.68-.99-1.88-1-2.5-.16-6.37.65-13.88,0-20Z"/>
        <path class="cls-6" d="M178.19,597.66c.35.95,1.43,1.53,1,2.99-5.14-.55-10.02.33-15,1.01-.56-3.02,1.53-1.93,3.45-2,3.4-.12,8.85,1.43,10.55-2Z"/>
        <path class="cls-1" d="M452.19,369.66c-.03,1.44.86,5.79-.99,5.99.58-6.06-1.29-13.29.99-18.99.1,4.3.09,8.7,0,13Z"/>
        <path class="cls-6" d="M129.19,623.66c-.28,1.73.4,9.6,0,9.99-.37.35-7.84,1.48-9.99,2.01-.59-3.01,1.46-1.78,3.31-2.14,1.25-.24,5.49-.67,5.7-.87.34-.32-.89-4.7.99-9Z"/>
        <g>
          <path class="cls-1" d="M131.19,543.66l4.53.22c.42.18.87,3.63,2.47,1.77.31-.37-2.05-7.13-2.03-9.45.09-7.75,1.73-20.03,3.33-27.75,2.05-9.91,6.22-19.33,9.71-28.78-4.08-2.95-16.8.11-15.87-6.28,1.33-9.09,18.15-2.88,23.35-2.66,3.69.16,6.88-1.24,10.51-1.08-1.12-5.6-2.67-11.76-3.04-17.45-.21-3.18-.89-18.77,2.57-19.54,7.35-1.65,9.3,32.95,9.98,37.99,14.99,7.13,28.24,16.34,29.25,34.58.18,3.23-1.98,5-1.89,7.96.06,1.8,1.9,1.3,2.1,2.16,4.05,17.15-2.72,32.46-18.3,40.49-2.34,1.2-12.13,4.15-12.59,5.46.26,10.09,4.25,19.55,6.36,29.24.22,1-.68,2.93-.45,3.11,2.08,1.64,6-4.48,7.65-5.79,18.16-14.46,38.51-15.34,59.64-6.33,25.24-29.59,84.52-28.87,103.73,7.13,18.39-11.58,41.62-6.68,58.88,4.59,2.03,1.32,7.86,7.01,8.82,7.26,1.08.28,21.16-2.41,22.06-3.07,4.84-15.88,8.24-32.51,9.19-49.16l2.02-.65v-.97c-3.87.83-1.14-6.13-2-7.01-3.76-.53-6.12,3.05-9.09,4.4-37.72,17.08-112.63-1.26-95.62-53.62,3.13-9.62,8.48-9.19,11.17-13.83,1.52-2.62,1.37-7.16,3.53-10.47,2.86-4.39,10.01-8.62,15.01-9.99,3-.82,12.9-1.21,13.79-1.72.54-.3,3.24-5.59,4.68-6.81,8.78-7.42,30.65.41,38.06,7.98,8.18,8.36,7.32,15.14,9.9,25.1,1.05,4.04,5.83,11.37,3.86,15.65-1.86,4.03-6.43,3.82-8.75.23-2.03-3.15-3.26-15.05-5.16-19.84-4.45-11.26-18.34-26.02-31.71-21.91-1.38.43-4.7,4.92-4.52,6.13.66,4.43,14.32,10.48,9.35,18.69-4.89,8.07-18.06-13.58-23.5-13.02l1.99-1.98c-4.96-1.39-16.26,6.99-15.84,11.22.49,4.95,8.25,11.95,10.56,17.54,2.93,7.09-3.7,10.45-8.71,5.72-2.79-2.63-3.45-5.77-7.01-9-.61-.56-.78-2.02-1.2-2.27-4.68-2.81-7.52,8.65-7.84,12.24-1.09,12.11,6.52,23.57,16.4,30.17,19.53,13.06,36.78,11.82,58.69,8.93,7.59-1,17.65-5.93,25.49-7.57l2.46,3.01c-.12,21.63-2.72,43.55-10,63.99,1.1.75,10.24.49,12,1.01,4.86,1.44,18.89,10.24,22.65,14.35,1.89,2.07,5.65,9.76,6.34,10.16,2.13,1.26,19.69,1.93,25.02,3.48,4.57,1.33,14.42,6.31,18.33,9.17,1.49,1.09,2.66,1.7,2.67,3.83-8.73,12.08-22.39,27.38-33,38-9.13,1.09-18.29,2.01-27.43,3.07-5.07.59-8.31,1.71-14.57,1.93-1.04-1.66-3.8-1-5.49-1.02-9.26-.1-18.81.04-28-.99-15.86-1.78-26.17-7.32-42.51-3.99-12.5,2.55-24.22,4.74-37,6l-37-2c-3.88-.84-17.02-5.12-19.43-4.97-2.92.18-6.35,3.59-9.29,4.75-4.13,1.63-10.97,3.93-15.23,4.77-5.81,1.14-12.45.66-18.05,2.45h-12s0,1.01,0,1.01h14.99s0-1.01,0-1.01h-9.99s-21.98-4.52-21.98-4.52c-3.87-.55-10.03-6.64-12.78-7.3s-5.72,1.31-8.24,1.82c-2.35-2.04-8.86,1-11.5,1h-25c-.34,0-1.67-.94-2.96-1.04-3.15-.24-6.39.22-9.54.04-5.08-.95-10.53-3.35-16-3-10.75-10.88-20.12-22.62-29-35,3.56-.74,7.65-3.84,10.79-4.73,1.92-.54,3.89.06,5.21-.27,2.15-.53,9.63-1.65,9.99-2.01.41-.4-.27-8.26,0-9.99,6.06-13.81,20.99-20.09,35-22,4.98-.68,9.85-1.55,15-1.01.44-1.47-.65-2.05-1-2.99-4.41-12.04-7.86-24.25-9.44-37.06-5.78-1.25-10.58-1.52-16.24-3.76s-15.8-9.52-21.32-13.18ZM283.06,596.8c-4.87-1.66-15.45,3.73-14.67,9.12s4.05,5.61,8.85,4.27c6.57-1.83,8.77-7.27,5.83-13.39ZM198.74,624.21c-9.73,8.59-9.21,20.03,5.7,18.18,9.75-1.21,32.37-12.03,16.1-21.58-7.41-4.35-15.88-1.83-21.8,3.4ZM398.89,626.96c-3.57-3.29-14.25-8.47-17.57-2.69-6.62,11.51,18.05,18.26,20.48,9.41.47-1.72-1.7-5.61-2.91-6.72ZM353.95,631.89c-1.28-1.3-7.25-1.88-8.85.17-5.76,7.37,9.55,15.66,9.91,4.1.03-.84-.6-3.81-1.06-4.27ZM468.04,647.8c-6.9-4.35-14.47,11.73-3.39,9.85,4.12-.7,5.56-8.49,3.39-9.85Z"/>
          <path class="cls-3" d="M198.74,624.21c5.92-5.23,14.4-7.75,21.8-3.4,16.26,9.55-6.36,20.37-16.1,21.58-14.91,1.85-15.43-9.59-5.7-18.18Z"/>
          <path class="cls-3" d="M398.89,626.96c1.21,1.12,3.38,5,2.91,6.72-2.43,8.84-27.1,2.09-20.48-9.41,3.33-5.79,14.01-.6,17.57,2.69Z"/>
          <path class="cls-3" d="M283.06,596.8c2.94,6.12.75,11.56-5.83,13.39-4.8,1.34-8.06,1.17-8.85-4.27s9.8-10.78,14.67-9.12Z"/>
          <path class="cls-3" d="M353.95,631.89c.46.47,1.09,3.43,1.06,4.27-.37,11.56-15.67,3.27-9.91-4.1,1.61-2.06,7.57-1.47,8.85-.17Z"/>
          <path class="cls-3" d="M468.04,647.8c2.17,1.37.73,9.16-3.39,9.85-11.08,1.87-3.51-14.2,3.39-9.85Z"/>
          <path class="cls-6" d="M197.19,678.66c-1.94.39-7.05,2-8.5,2h-32c-1.49,0-6.66-1.66-8.5-2,3.15.19,6.39-.28,9.54-.04,1.29.1,2.62,1.04,2.96,1.04h25c2.64,0,9.15-3.04,11.5-1Z"/>
          <path class="cls-6" d="M459.19,683.66c-16.88.61-32.58-.85-49.21-3.29-5.27-.77-13.72-3.65-18.35-3.75-3.5-.08-5.86,3.12-8.44,1.04,16.34-3.33,26.65,2.21,42.51,3.99,9.19,1.03,18.75.9,28,.99,1.69.02,4.45-.64,5.49,1.02Z"/>
        </g>
        <path class="cls-1" d="M291.48,277.36c-4.87-3.95-1.58-11.75,3.7-14.21,6.86-3.2,33.2-11.05,40.75-12.24,6.5-1.03,13.48-.55,10.81,7.81-1.75,5.46-14.37,7.26-19.53,9.46-7.84,3.35-27.83,15.59-35.73,9.18Z"/>
        <path class="cls-1" d="M315.93,276.88c20.83-4.22,22,36.95,2.75,37.84-17.71.82-18.7-34.61-2.75-37.84Z"/>
        <path class="cls-1" d="M199.49,253.95c.71-.83,4.46-2.62,5.65-2.88,5.74-1.28,20.41,6.81,26.81,9.34,5.52,2.19,18.65,3.2,15.83,12.29-1.59,5.14-6.09,6.29-10.83,5.7-5.23-.64-32.97-12.32-36.3-15.69-2.09-2.12-3.25-6.3-1.16-8.76Z"/>
        <path class="cls-1" d="M231.19,305.66c-5.5-.11-15.12.6-21,1-2.4-8.38-4.67-27.56,7.46-29.04,16.44-2.01,17.95,16.41,13.54,28.04Z"/>
        <g>
          <path class="cls-3" d="M491.19,552.66c1.88.08,3.3-.53,4.98-.51-2.72,2.29-.51,5.83-.93,7.86-.17.8-2.1.56-2.09,1.16.03,1.42,1.71,2.37,2.03,4.04.98,5.12-3.62,18.83-4.99,24.42,3.38.87,5.7,3.3,9.3,1.08s7.34-26.96,9.66-32.41c.49-.95,2.2-.89,3.04-.64.16.05,1.12,1.33,2.71,1.75,3.84,1,17.03,3.33,19.25,4.79,5.98,3.95.9,16.75-.69,22.23-4.33,14.83-10.4,29.24-20.27,41.23-5.33-1.55-22.88-2.22-25.02-3.48-.69-.41-4.45-8.1-6.34-10.16-3.76-4.11-17.79-12.91-22.65-14.35l10.93-48.56c3.27-3.68,15.63,1.34,21.07,1.56Z"/>
          <g>
            <path class="cls-1" d="M491.19,552.66c6.69-34.8,16.15-69.06,23.97-103.63.13-3.37-7.29-7.25-9.8-11.03-7.38-11.1-5.53-34.73.63-46.04,1.47-2.69,3.42-3.87,6.53-3.96,17.27,4.88,38.07,6.47,54.9,11.95,10.25,3.33,6.04,10.67,3.5,18.94-5.05,16.44-14.1,33-33.63,32.87l-25.09,105.91c-.84-.25-2.55-.31-3.04.64-2.32,5.45-6.05,30.19-9.66,32.41s-5.92-.21-9.3-1.08c1.37-5.59,5.97-19.3,4.99-24.42-.32-1.67-2-2.62-2.03-4.04-.01-.6,1.92-.36,2.09-1.16.42-2.02-1.79-5.56.93-7.86-1.68-.01-3.1.59-4.98.51ZM551.16,416.7l-31.94-7.04c-9.02,25.85,30.24,34.43,31.94,7.04Z"/>
            <path class="cls-4" d="M551.16,416.7c-1.7,27.39-40.96,18.8-31.94-7.04l31.94,7.04Z"/>
          </g>
        </g>
        <g>
          <path class="cls-1" d="M165.19,293.66c10.78.34,27.31,6.21,34,15,20.69,27.2-3.61,63.59-36,62-.29-.98-1.15-.92-2-1-.65-.06-1.34.03-2,0-1.57-.06-3.62.26-5,0-42.66-8-40.87-77.63,11-76ZM159.95,307.87c-9.21,1.33-18.12,11.16-7.11,17.64,6.02,3.54,12.74,2.42,18.28-1.41,12.67-8.77-.52-17.76-11.18-16.22Z"/>
          <path class="cls-3" d="M159.95,307.87c10.65-1.54,23.84,7.45,11.18,16.22-5.54,3.84-12.26,4.95-18.28,1.41-11.02-6.48-2.1-16.31,7.11-17.64Z"/>
          <path class="cls-3" d="M163.19,370.66c-.85-.04-1.72-.05-2-1,.85.08,1.71.02,2,1Z"/>
        </g>
        <g>
          <path class="cls-2" d="M231.19,305.66c32.93.65,62.75,7.21,78.18,39.32,34.92,72.67-54.52,91.64-106.2,65.2-17.35-8.88-36.5-21.9-43.98-40.52.66.03,1.35-.06,2,0,.28.95,1.15.96,2,1,32.39,1.59,56.69-34.8,36-62,3.96-.8,6.82-1.72,11-2,5.88-.4,15.5-1.11,21-1ZM237.6,388.07c16.68-11.94,28.84-12.29,47.28-2.6,4.67,2.46,10.81,10.1,14.89,5.27,7.93-9.38-19.22-19.86-25.76-21.4-15.23-3.59-28.87-.24-40.83,9.81-3.51,2.95-14.42,12.55-5.01,15.11,3.55.97,6.91-4.38,9.43-6.19Z"/>
          <path class="cls-1" d="M237.6,388.07c-2.52,1.81-5.88,7.15-9.43,6.19-9.41-2.56,1.51-12.16,5.01-15.11,11.96-10.05,25.61-13.4,40.83-9.81,6.54,1.54,33.69,12.03,25.76,21.4-4.09,4.83-10.22-2.81-14.89-5.27-18.44-9.69-30.6-9.35-47.28,2.6Z"/>
        </g>
      </g>
    </g>
  </g>
</svg>